<svg xmlns="http://www.w3.org/2000/svg" xmlns:xlink="http://www.w3.org/1999/xlink" xmlns:svgjs="http://svgjs.dev/svgjs" version="1.1" viewBox="0 0 800 400"><path d="M291.0314025878906 121.97309112548828C284.5366332499186 126.22421212514242 253.3946245320638 146.93871039072673 241.70404052734375 154.2600860595703C230.0134565226237 161.5814617284139 200.8251169840495 169.31240661621095 202.24215698242188 177.57847595214844C203.65919698079426 185.84454528808592 240.65770029703776 209.12855016072592 252.46636962890625 217.0403594970703C264.27503896077474 224.9521688334147 273.03438385009764 250.53961744944255 291.9282531738281 237.6681671142578C310.8221224975586 224.79671677907308 377.0702420043945 131.6816128540039 395.964111328125 119.28250885009766C414.8579806518555 106.88340484619141 424.3258415222168 136.64872862497964 435.4259948730469 143.4977569580078C446.52614822387693 150.34678529103599 479.7967241414388 162.79820355733236 480.2690734863281 171.30044555664062C480.74142283121745 179.8026875559489 450.1136116027832 200.6322848256429 439.0134582519531 208.07174682617188C427.91330490112307 215.51120882670085 403.4035753377279 224.02391393025715 395.964111328125 227.8026885986328C388.5246473185221 231.58146326700847 384.2824999491374 235.5904339345296 382.5111999511719 236.77130126953125 " fill="none" stroke-width="30" stroke="url(&quot;#SvgjsLinearGradient1000&quot;)" stroke-linecap="round" stroke-dasharray="0 0" stroke-opacity="1" transform="matrix(2.1828745883819383,-1.9387821023126305e-15,1.9387821023126305e-15,2.1828745883819383,-344.8698140804969,-190.21262292862295)"/><defs><linearGradient id="SvgjsLinearGradient1000" gradientTransform="rotate(243, 0.5, 0.5)"><stop stop-color="hsl(180, 69%, 40%)" offset="0"/><stop stop-color="hsl(180, 69%, 60%)" offset="1"/></linearGradient></defs></svg>